<mxfile host="app.diagrams.net" modified="2024-07-23T02:37:54.145Z" agent="Mozilla/5.0 (Windows NT 10.0; Win64; x64) AppleWebKit/537.36 (KHTML, like Gecko) Chrome/126.0.0.0 Safari/537.36 Edg/126.0.0.0" version="24.6.4" etag="h8HWJL2or41mfzHOxskw" type="github">
  <diagram name="Trang-1" id="T57gZCQn80jlsDwGimJ1">
    <mxGraphModel>
      <root>
        <mxCell id="0" />
        <mxCell id="1" parent="0" />
      </root>
    </mxGraphModel>
  </diagram>
</mxfile>
